<svg width="173" height="69" viewBox="0 0 173 69" fill="none" xmlns="http://www.w3.org/2000/svg">
<mask id="path-1-outside-1_2_3" maskUnits="userSpaceOnUse" x="-1" y="-1" width="175" height="71" fill="black">
<rect fill="white" x="-1" y="-1" width="175" height="71"/>
<path d="M17.792 67.232C17.792 67.808 14.528 68.096 8 68.096C2.88 68.032 0.32 67.776 0.32 67.328V1.952C0.32 0.991999 3.424 0.511999 9.632 0.511999C15.072 0.703997 17.792 1.024 17.792 1.472V67.232ZM67.7563 67.424C67.7563 68.192 65.0683 68.576 59.6923 68.576C53.2923 68.32 50.0923 67.904 50.0923 67.328V33.344H45.1963C43.9163 33.344 43.2763 31.136 43.2763 26.72C43.2763 25.568 43.3723 24.16 43.5643 22.496C43.8203 20.832 44.3003 20 45.0043 20H50.0923V11.552C50.0923 10.272 52.7803 9.632 58.1563 9.632C63.5963 9.632 66.3163 10.144 66.3163 11.168V17.312L66.4123 20H74.5723C75.6603 20 76.2043 22.24 76.2043 26.72C76.2043 31.2 75.6603 33.44 74.5723 33.44H67.7563V67.424ZM122.3 67.424C122.3 68.192 119.612 68.576 114.236 68.576C107.836 68.32 104.636 67.904 104.636 67.328V33.344H99.74C98.46 33.344 97.82 31.136 97.82 26.72C97.82 25.568 97.916 24.16 98.108 22.496C98.364 20.832 98.844 20 99.548 20H104.636V11.552C104.636 10.272 107.324 9.632 112.7 9.632C118.14 9.632 120.86 10.144 120.86 11.168V17.312L120.956 20H129.116C130.204 20 130.748 22.24 130.748 26.72C130.748 31.2 130.204 33.44 129.116 33.44H122.3V67.424ZM172.236 67.232C172.236 67.808 168.972 68.096 162.444 68.096C157.324 68.032 154.764 67.776 154.764 67.328V1.952C154.764 0.991999 157.868 0.511999 164.076 0.511999C169.516 0.703997 172.236 1.024 172.236 1.472V67.232Z"/>
</mask>
<path d="M17.792 67.232C17.792 67.808 14.528 68.096 8 68.096C2.88 68.032 0.32 67.776 0.32 67.328V1.952C0.32 0.991999 3.424 0.511999 9.632 0.511999C15.072 0.703997 17.792 1.024 17.792 1.472V67.232ZM67.7563 67.424C67.7563 68.192 65.0683 68.576 59.6923 68.576C53.2923 68.32 50.0923 67.904 50.0923 67.328V33.344H45.1963C43.9163 33.344 43.2763 31.136 43.2763 26.72C43.2763 25.568 43.3723 24.16 43.5643 22.496C43.8203 20.832 44.3003 20 45.0043 20H50.0923V11.552C50.0923 10.272 52.7803 9.632 58.1563 9.632C63.5963 9.632 66.3163 10.144 66.3163 11.168V17.312L66.4123 20H74.5723C75.6603 20 76.2043 22.24 76.2043 26.72C76.2043 31.2 75.6603 33.44 74.5723 33.44H67.7563V67.424ZM122.3 67.424C122.3 68.192 119.612 68.576 114.236 68.576C107.836 68.32 104.636 67.904 104.636 67.328V33.344H99.74C98.46 33.344 97.82 31.136 97.82 26.72C97.82 25.568 97.916 24.16 98.108 22.496C98.364 20.832 98.844 20 99.548 20H104.636V11.552C104.636 10.272 107.324 9.632 112.7 9.632C118.14 9.632 120.86 10.144 120.86 11.168V17.312L120.956 20H129.116C130.204 20 130.748 22.24 130.748 26.72C130.748 31.2 130.204 33.44 129.116 33.44H122.3V67.424ZM172.236 67.232C172.236 67.808 168.972 68.096 162.444 68.096C157.324 68.032 154.764 67.776 154.764 67.328V1.952C154.764 0.991999 157.868 0.511999 164.076 0.511999C169.516 0.703997 172.236 1.024 172.236 1.472V67.232Z" fill="#358AA4"/>
<path d="M8 68.096L7.9875 69.096H8V68.096ZM9.632 0.511999L9.66727 -0.487379L9.64964 -0.488001H9.632V0.511999ZM16.792 67.232C16.792 67.014 16.874 66.8422 16.9559 66.7338C17.0292 66.6368 17.0997 66.5923 17.1135 66.5837C17.1356 66.5701 17.0935 66.5984 16.9241 66.6433C16.6009 66.7288 16.0577 66.8131 15.2561 66.8839C13.6695 67.0239 11.2574 67.096 8 67.096V69.096C11.2706 69.096 13.7545 69.0241 15.4319 68.8761C16.2623 68.8029 16.9431 68.7072 17.4359 68.5767C17.6745 68.5136 17.9384 68.4249 18.1645 68.2853C18.3601 68.1645 18.792 67.835 18.792 67.232H16.792ZM8.0125 67.0961C5.4591 67.0642 3.57458 66.9845 2.3395 66.861C1.71383 66.7984 1.30165 66.7288 1.06516 66.6638C0.939235 66.6292 0.928225 66.6129 0.969999 66.639C0.978505 66.6443 1.32 66.8529 1.32 67.328H-0.68C-0.68 67.9151 -0.258505 68.2297 -0.0899988 68.335C0.111775 68.4611 0.340765 68.5388 0.534844 68.5922C0.938354 68.7032 1.48617 68.7856 2.1405 68.851C3.46542 68.9835 5.4209 69.0638 7.9875 69.0959L8.0125 67.0961ZM1.32 67.328V1.952H-0.68V67.328H1.32ZM1.32 1.952C1.32 2.34184 0.999148 2.3793 1.32284 2.22914C1.58237 2.10873 2.05394 1.97575 2.80082 1.86025C4.27441 1.63238 6.53993 1.512 9.632 1.512V-0.488001C6.51607 -0.488001 4.12559 -0.368381 2.49518 -0.116255C1.69006 0.00824844 0.997629 0.175265 0.481164 0.414862C0.0288526 0.624697 -0.68 1.08216 -0.68 1.952H1.32ZM9.59673 1.51138C12.3105 1.60716 14.3172 1.7341 15.6352 1.88915C16.3017 1.96757 16.7484 2.04842 17.0103 2.12237C17.1489 2.16152 17.1735 2.18194 17.1426 2.16303C17.1255 2.15253 17.0515 2.10603 16.9743 2.00796C16.8892 1.8998 16.792 1.71561 16.792 1.472H18.792C18.792 0.863544 18.3377 0.549563 18.1864 0.456965C17.9855 0.334058 17.7551 0.254477 17.5537 0.197624C17.1356 0.0795762 16.5623 -0.0155748 15.8688 -0.0971536C14.4668 -0.262102 12.3935 -0.39116 9.66727 -0.487379L9.59673 1.51138ZM16.792 1.472V67.232H18.792V1.472H16.792ZM59.6923 68.576L59.6523 69.5752L59.6723 69.576H59.6923V68.576ZM50.0923 33.344H51.0923V32.344H50.0923V33.344ZM43.5643 22.496L42.5759 22.3439L42.573 22.3626L42.5708 22.3814L43.5643 22.496ZM50.0923 20V21H51.0923V20H50.0923ZM66.3163 17.312H65.3163V17.3299L65.3169 17.3477L66.3163 17.312ZM66.4123 20L65.4129 20.0357L65.4473 21H66.4123V20ZM67.7563 33.44V32.44H66.7563V33.44H67.7563ZM66.7563 67.424C66.7563 66.9443 67.1673 66.8765 66.8583 67.0089C66.6447 67.1004 66.2446 67.2058 65.5988 67.2981C64.3275 67.4797 62.3693 67.576 59.6923 67.576V69.576C62.3912 69.576 64.465 69.4803 65.8817 69.2779C66.5799 69.1782 67.1878 69.0436 67.6462 68.8471C68.0092 68.6915 68.7563 68.2877 68.7563 67.424H66.7563ZM59.7322 67.5768C56.5391 67.4491 54.1754 67.2824 52.6212 67.0803C51.8361 66.9783 51.3045 66.8729 50.9884 66.7748C50.8233 66.7237 50.7804 66.6934 50.7989 66.7057C50.8108 66.7137 50.8748 66.7574 50.9415 66.8501C51.0151 66.9525 51.0923 67.1171 51.0923 67.328H49.0923C49.0923 67.9094 49.4964 68.2405 49.6856 68.3673C49.9041 68.5136 50.1612 68.6123 50.3962 68.6852C50.88 68.8351 51.5484 68.9577 52.3633 69.0637C54.0091 69.2776 56.4454 69.4469 59.6523 69.5752L59.7322 67.5768ZM51.0923 67.328V33.344H49.0923V67.328H51.0923ZM50.0923 32.344H45.1963V34.344H50.0923V32.344ZM45.1963 32.344C45.1887 32.344 45.1865 32.3433 45.1879 32.3436C45.1894 32.3439 45.1899 32.3443 45.1883 32.3435C45.1861 32.3424 45.1585 32.3286 45.1109 32.2738C45.005 32.1521 44.857 31.8934 44.7167 31.4096C44.4371 30.4448 44.2763 28.9035 44.2763 26.72H42.2763C42.2763 28.9525 42.4354 30.7232 42.7958 31.9664C42.9755 32.5865 43.2275 33.1559 43.6016 33.5862C44.0014 34.0459 44.5438 34.344 45.1963 34.344V32.344ZM44.2763 26.72C44.2763 25.6192 44.3683 24.252 44.5577 22.6106L42.5708 22.3814C42.3762 24.068 42.2763 25.5168 42.2763 26.72H44.2763ZM44.5526 22.6481C44.6738 21.8605 44.8343 21.3805 44.9824 21.1237C45.1173 20.8899 45.1356 21 45.0043 21V19C44.1689 19 43.5952 19.5261 43.2501 20.1243C42.9182 20.6995 42.7107 21.4675 42.5759 22.3439L44.5526 22.6481ZM45.0043 21H50.0923V19H45.0043V21ZM51.0923 20V11.552H49.0923V20H51.0923ZM51.0923 11.552C51.0923 11.6464 51.0198 11.6384 51.1775 11.5257C51.3608 11.3948 51.7204 11.2323 52.3399 11.0848C53.5667 10.7927 55.4876 10.632 58.1563 10.632V8.632C55.4489 8.632 53.3378 8.79129 51.8766 9.13919C51.1521 9.31169 50.5037 9.54918 50.015 9.89827C49.5007 10.2656 49.0923 10.8176 49.0923 11.552H51.0923ZM58.1563 10.632C60.8615 10.632 62.8257 10.7605 64.0913 10.9987C64.7332 11.1196 65.1166 11.255 65.3145 11.3668C65.5193 11.4824 65.3163 11.4395 65.3163 11.168H67.3163C67.3163 10.3845 66.7732 9.89361 66.298 9.62524C65.8159 9.35302 65.1793 9.16841 64.4612 9.03326C63.0068 8.75948 60.891 8.632 58.1563 8.632V10.632ZM65.3163 11.168V17.312H67.3163V11.168H65.3163ZM65.3169 17.3477L65.4129 20.0357L67.4116 19.9643L67.3156 17.2763L65.3169 17.3477ZM66.4123 21H74.5723V19H66.4123V21ZM74.5723 21C74.4387 21 74.4052 20.9089 74.478 21.0089C74.5704 21.1356 74.7016 21.4099 74.8245 21.916C75.0675 22.9167 75.2043 24.4998 75.2043 26.72H77.2043C77.2043 24.4602 77.069 22.6833 76.768 21.444C76.6189 20.8301 76.4101 20.2644 76.0945 19.8311C75.7593 19.3711 75.2498 19 74.5723 19V21ZM75.2043 26.72C75.2043 28.9402 75.0675 30.5233 74.8245 31.524C74.7016 32.0301 74.5704 32.3044 74.478 32.4311C74.4052 32.5311 74.4387 32.44 74.5723 32.44V34.44C75.2498 34.44 75.7593 34.0689 76.0945 33.6089C76.4101 33.1756 76.6189 32.6099 76.768 31.996C77.069 30.7567 77.2043 28.9798 77.2043 26.72H75.2043ZM74.5723 32.44H67.7563V34.44H74.5723V32.44ZM66.7563 33.44V67.424H68.7563V33.44H66.7563ZM114.236 68.576L114.196 69.5752L114.216 69.576H114.236V68.576ZM104.636 33.344H105.636V32.344H104.636V33.344ZM98.108 22.496L97.1196 22.3439L97.1168 22.3626L97.1146 22.3814L98.108 22.496ZM104.636 20V21H105.636V20H104.636ZM120.86 17.312H119.86V17.3299L119.861 17.3477L120.86 17.312ZM120.956 20L119.957 20.0357L119.991 21H120.956V20ZM122.3 33.44V32.44H121.3V33.44H122.3ZM121.3 67.424C121.3 66.9443 121.711 66.8765 121.402 67.0089C121.188 67.1004 120.788 67.2058 120.143 67.2981C118.871 67.4797 116.913 67.576 114.236 67.576V69.576C116.935 69.576 119.009 69.4803 120.425 69.2779C121.124 69.1782 121.732 69.0436 122.19 68.8471C122.553 68.6915 123.3 68.2877 123.3 67.424H121.3ZM114.276 67.5768C111.083 67.4491 108.719 67.2824 107.165 67.0803C106.38 66.9783 105.848 66.8729 105.532 66.7748C105.367 66.7237 105.324 66.6934 105.343 66.7057C105.355 66.7137 105.419 66.7574 105.485 66.8501C105.559 66.9525 105.636 67.1171 105.636 67.328H103.636C103.636 67.9094 104.04 68.2405 104.229 68.3673C104.448 68.5136 104.705 68.6123 104.94 68.6852C105.424 68.8351 106.092 68.9577 106.907 69.0637C108.553 69.2776 110.989 69.4469 114.196 69.5752L114.276 67.5768ZM105.636 67.328V33.344H103.636V67.328H105.636ZM104.636 32.344H99.74V34.344H104.636V32.344ZM99.74 32.344C99.7325 32.344 99.7303 32.3433 99.7316 32.3436C99.7331 32.3439 99.7337 32.3443 99.7321 32.3435C99.7299 32.3424 99.7022 32.3286 99.6546 32.2738C99.5488 32.1521 99.4007 31.8934 99.2605 31.4096C98.9808 30.4448 98.82 28.9035 98.82 26.72H96.82C96.82 28.9525 96.9792 30.7232 97.3395 31.9664C97.5193 32.5865 97.7712 33.1559 98.1454 33.5862C98.5451 34.0459 99.0875 34.344 99.74 34.344V32.344ZM98.82 26.72C98.82 25.6192 98.912 24.252 99.1014 22.6106L97.1146 22.3814C96.92 24.068 96.82 25.5168 96.82 26.72H98.82ZM99.0964 22.6481C99.2175 21.8605 99.3781 21.3805 99.5262 21.1237C99.6611 20.8899 99.6794 21 99.548 21V19C98.7126 19 98.1389 19.5261 97.7938 20.1243C97.4619 20.6995 97.2545 21.4675 97.1196 22.3439L99.0964 22.6481ZM99.548 21H104.636V19H99.548V21ZM105.636 20V11.552H103.636V20H105.636ZM105.636 11.552C105.636 11.6464 105.564 11.6384 105.721 11.5257C105.905 11.3948 106.264 11.2323 106.884 11.0848C108.11 10.7927 110.031 10.632 112.7 10.632V8.632C109.993 8.632 107.882 8.79129 106.42 9.13919C105.696 9.31169 105.047 9.54918 104.559 9.89827C104.044 10.2656 103.636 10.8176 103.636 11.552H105.636ZM112.7 10.632C115.405 10.632 117.369 10.7605 118.635 10.9987C119.277 11.1196 119.66 11.255 119.858 11.3668C120.063 11.4824 119.86 11.4395 119.86 11.168H121.86C121.86 10.3845 121.317 9.89361 120.842 9.62524C120.36 9.35302 119.723 9.16841 119.005 9.03326C117.551 8.75948 115.435 8.632 112.7 8.632V10.632ZM119.86 11.168V17.312H121.86V11.168H119.86ZM119.861 17.3477L119.957 20.0357L121.955 19.9643L121.859 17.2763L119.861 17.3477ZM120.956 21H129.116V19H120.956V21ZM129.116 21C128.982 21 128.949 20.9089 129.022 21.0089C129.114 21.1356 129.245 21.4099 129.368 21.916C129.611 22.9167 129.748 24.4998 129.748 26.72H131.748C131.748 24.4602 131.613 22.6833 131.312 21.444C131.163 20.8301 130.954 20.2644 130.638 19.8311C130.303 19.3711 129.794 19 129.116 19V21ZM129.748 26.72C129.748 28.9402 129.611 30.5233 129.368 31.524C129.245 32.0301 129.114 32.3044 129.022 32.4311C128.949 32.5311 128.982 32.44 129.116 32.44V34.44C129.794 34.44 130.303 34.0689 130.638 33.6089C130.954 33.1756 131.163 32.6099 131.312 31.996C131.613 30.7567 131.748 28.9798 131.748 26.72H129.748ZM129.116 32.44H122.3V34.44H129.116V32.44ZM121.3 33.44V67.424H123.3V33.44H121.3ZM162.444 68.096L162.431 69.096H162.444V68.096ZM164.076 0.511999L164.111 -0.487379L164.093 -0.488001H164.076V0.511999ZM171.236 67.232C171.236 67.014 171.318 66.8422 171.4 66.7338C171.473 66.6368 171.543 66.5923 171.557 66.5837C171.579 66.5701 171.537 66.5984 171.368 66.6433C171.045 66.7288 170.501 66.8131 169.7 66.8839C168.113 67.0239 165.701 67.096 162.444 67.096V69.096C165.714 69.096 168.198 69.0241 169.876 68.8761C170.706 68.8029 171.387 68.7072 171.88 68.5767C172.118 68.5136 172.382 68.4249 172.608 68.2853C172.804 68.1645 173.236 67.835 173.236 67.232H171.236ZM162.456 67.0961C159.903 67.0642 158.018 66.9845 156.783 66.861C156.158 66.7984 155.745 66.7288 155.509 66.6638C155.383 66.6292 155.372 66.6129 155.414 66.639C155.422 66.6443 155.764 66.8529 155.764 67.328H153.764C153.764 67.9151 154.185 68.2297 154.354 68.335C154.556 68.4611 154.785 68.5388 154.979 68.5922C155.382 68.7032 155.93 68.7856 156.584 68.851C157.909 68.9835 159.865 69.0638 162.431 69.0959L162.456 67.0961ZM155.764 67.328V1.952H153.764V67.328H155.764ZM155.764 1.952C155.764 2.34184 155.443 2.3793 155.767 2.22914C156.026 2.10873 156.498 1.97575 157.245 1.86025C158.718 1.63238 160.984 1.512 164.076 1.512V-0.488001C160.96 -0.488001 158.569 -0.368381 156.939 -0.116255C156.134 0.00824844 155.441 0.175265 154.925 0.414862C154.473 0.624697 153.764 1.08216 153.764 1.952H155.764ZM164.04 1.51138C166.754 1.60716 168.761 1.7341 170.079 1.88915C170.745 1.96757 171.192 2.04842 171.454 2.12237C171.593 2.16152 171.617 2.18194 171.586 2.16303C171.569 2.15253 171.495 2.10603 171.418 2.00796C171.333 1.8998 171.236 1.71561 171.236 1.472H173.236C173.236 0.863544 172.781 0.549563 172.63 0.456965C172.429 0.334058 172.199 0.254477 171.997 0.197624C171.579 0.0795762 171.006 -0.0155748 170.313 -0.0971536C168.911 -0.262102 166.837 -0.39116 164.111 -0.487379L164.04 1.51138ZM171.236 1.472V67.232H173.236V1.472H171.236Z" fill="white" mask="url(#path-1-outside-1_2_3)"/>
</svg>
